<svg width="38" height="38" viewBox="0 0 38 38" fill="none" xmlns="http://www.w3.org/2000/svg">
<g filter="url(#filter0_d_24_127)">
<path fill-rule="evenodd" clip-rule="evenodd" d="M19 30C27.2843 30 34 23.2843 34 15C34 6.71574 27.2843 0 19 0C10.7157 0 4 6.71574 4 15C4 23.2843 10.7157 30 19 30ZM11.5 11.8175C11.5 9.43674 13.437 7.5 15.8175 7.5H22.1825C24.5633 7.5 26.5 9.43698 26.5 11.8175V18.2408C26.5 20.6214 24.5633 22.5584 22.1825 22.5584H15.8175C13.4367 22.5584 11.5 20.6214 11.5 18.2408V11.8175ZM15.0965 15.0016C15.0965 12.8654 16.8531 11.1277 19.0119 11.1277C21.1707 11.1277 22.9273 12.8654 22.9273 15.0016C22.9273 17.1376 21.1707 18.8753 19.0119 18.8753C16.8529 18.8753 15.0965 17.1376 15.0965 15.0016ZM16.5227 15.0016C16.5227 16.351 17.6392 17.4491 19.0119 17.4491C20.3846 17.4491 21.5012 16.3512 21.5012 15.0016C21.5012 13.652 20.3844 12.5541 19.0119 12.5541C17.6392 12.5541 16.5227 13.652 16.5227 15.0016ZM22.9974 11.8907C23.5062 11.8907 23.9187 11.4782 23.9187 10.9694C23.9187 10.4606 23.5062 10.0481 22.9974 10.0481C22.4886 10.0481 22.0762 10.4606 22.0762 10.9694C22.0762 11.4782 22.4886 11.8907 22.9974 11.8907Z" fill="#53897B"/>
<path d="M33.5 15C33.5 23.0081 27.0081 29.5 19 29.5C10.9919 29.5 4.5 23.0081 4.5 15C4.5 6.99188 10.9919 0.5 19 0.5C27.0081 0.5 33.5 6.99188 33.5 15ZM15.8175 7C13.1609 7 11 9.16058 11 11.8175V18.2408C11 20.8975 13.1606 23.0584 15.8175 23.0584H22.1825C24.8394 23.0584 27 20.8975 27 18.2408V11.8175C27 9.16086 24.8394 7 22.1825 7H15.8175ZM15.5965 15.0016C15.5965 13.1466 17.1242 11.6277 19.0119 11.6277C20.8996 11.6277 22.4273 13.1466 22.4273 15.0016C22.4273 16.8564 20.8996 18.3753 19.0119 18.3753C17.124 18.3753 15.5965 16.8564 15.5965 15.0016ZM16.0227 15.0016C16.0227 16.635 17.3711 17.9491 19.0119 17.9491C20.6527 17.9491 22.0012 16.6353 22.0012 15.0016C22.0012 13.3679 20.6525 12.0541 19.0119 12.0541C17.3711 12.0541 16.0227 13.3679 16.0227 15.0016ZM23.4187 10.9694C23.4187 11.2021 23.2301 11.3907 22.9974 11.3907C22.7648 11.3907 22.5762 11.202 22.5762 10.9694C22.5762 10.7368 22.7648 10.5481 22.9974 10.5481C23.2301 10.5481 23.4187 10.7367 23.4187 10.9694Z" stroke="black"/>
</g>
<defs>
<filter id="filter0_d_24_127" x="0" y="0" width="38" height="38" filterUnits="userSpaceOnUse" color-interpolation-filters="sRGB">
<feFlood flood-opacity="0" result="BackgroundImageFix"/>
<feColorMatrix in="SourceAlpha" type="matrix" values="0 0 0 0 0 0 0 0 0 0 0 0 0 0 0 0 0 0 127 0" result="hardAlpha"/>
<feOffset dy="4"/>
<feGaussianBlur stdDeviation="2"/>
<feComposite in2="hardAlpha" operator="out"/>
<feColorMatrix type="matrix" values="0 0 0 0 0 0 0 0 0 0 0 0 0 0 0 0 0 0 0.25 0"/>
<feBlend mode="normal" in2="BackgroundImageFix" result="effect1_dropShadow_24_127"/>
<feBlend mode="normal" in="SourceGraphic" in2="effect1_dropShadow_24_127" result="shape"/>
</filter>
</defs>
</svg>
